<svg width="562" height="228" viewBox="0 0 562 228" fill="none" xmlns="http://www.w3.org/2000/svg">
<g filter="url(#filter0_d_1302_4)">
<rect x="17" y="13" width="528" height="194" rx="70" fill="white" fill-opacity="0.8" shape-rendering="crispEdges"/>
</g>
<path d="M124.624 139C120.227 139 116.993 138.806 114.924 138.418C112.855 138.03 111.82 137.577 111.82 137.06L115.7 128.621C117.187 128.88 120.873 129.138 126.758 129.397C132.707 129.591 140.855 129.688 151.202 129.688H153.045C155.826 129.688 157.798 129.203 158.962 128.233C160.126 127.198 160.708 125.485 160.708 123.092V121.152C160.708 118.889 160.223 117.272 159.253 116.302C158.348 115.332 156.278 114.847 153.045 114.847H130.541C124.01 114.847 119.257 113.651 116.282 111.258C113.307 108.801 111.82 104.824 111.82 99.327V97.775C111.82 94.9297 112.337 92.3107 113.372 89.918C114.471 87.5253 116.314 85.6177 118.901 84.195C121.488 82.7077 125.044 81.964 129.571 81.964H155.955C160.352 81.964 163.909 82.1903 166.625 82.643C169.341 83.0957 170.699 83.5807 170.699 84.098L168.759 92.246C167.078 92.052 163.262 91.858 157.313 91.664C151.364 91.4053 143.377 91.276 133.354 91.276L132.287 91.179C129.312 91.179 127.308 91.7933 126.273 93.022C125.238 94.186 124.689 95.6733 124.624 97.484V99.133C124.624 101.267 125.206 102.884 126.37 103.983C127.599 105.018 129.603 105.535 132.384 105.535H153.918C158.057 105.535 161.581 105.955 164.491 106.796C167.401 107.637 169.632 109.189 171.184 111.452C172.736 113.651 173.512 116.916 173.512 121.249V122.801C173.512 127.651 172.251 131.563 169.729 134.538C167.272 137.513 162.971 139 156.828 139H124.624ZM206.575 139L206.478 91.179H181.258V81.867H244.696V91.179H219.379V139H206.575ZM235.018 139L263.439 81.964H282.548L310.872 139H295.934L290.211 126.681H255.485L249.18 139H235.018ZM258.977 117.175H286.622L273.333 90.694H272.363L258.977 117.175ZM380.637 139.97C378.05 139.97 375.496 139.582 372.974 138.806C370.516 137.965 367.703 135.961 364.535 132.792L357.551 125.808C354.705 122.898 351.569 120.764 348.142 119.406C344.779 118.048 340.543 117.369 335.435 117.369H332.428V139H319.624V89.724L318.654 81.867H361.625C365.763 81.867 368.997 82.4167 371.325 83.516C373.717 84.6153 375.463 86.0703 376.563 87.881C377.727 89.627 378.47 91.5023 378.794 93.507C379.117 95.5117 379.279 97.4193 379.279 99.23V101.073C379.279 102.496 379.085 104.08 378.697 105.826C378.309 107.572 377.565 109.286 376.466 110.967C375.366 112.648 373.782 114.071 371.713 115.235C369.708 116.399 367.057 117.078 363.759 117.272C364.599 117.725 365.666 118.436 366.96 119.406C368.253 120.311 369.579 121.314 370.937 122.413C372.359 123.512 373.653 124.515 374.817 125.42C375.981 126.325 376.886 126.972 377.533 127.36C379.861 128.718 381.93 129.656 383.741 130.173C385.551 130.69 387.039 130.981 388.203 131.046C389.367 131.111 390.046 131.143 390.24 131.143L388.3 139C387.718 139.194 386.748 139.388 385.39 139.582C384.032 139.841 382.447 139.97 380.637 139.97ZM346.978 108.542C349.435 108.542 351.634 108.51 353.574 108.445C355.514 108.316 357.26 108.186 358.812 108.057C361.657 107.734 363.629 106.958 364.729 105.729C365.893 104.436 366.475 102.787 366.475 100.782V98.551C366.475 96.4817 365.925 94.7357 364.826 93.313C363.726 91.8903 361.754 91.179 358.909 91.179H332.428V108.057C335.273 108.251 337.892 108.38 340.285 108.445C342.677 108.51 344.908 108.542 346.978 108.542ZM414.595 139L414.498 91.179H389.278V81.867H452.716V91.179H427.399V139H414.595Z" fill="black" fill-opacity="0.7"/>
<defs>
<filter id="filter0_d_1302_4" x="0" y="0" width="562" height="228" filterUnits="userSpaceOnUse" color-interpolation-filters="sRGB">
<feFlood flood-opacity="0" result="BackgroundImageFix"/>
<feColorMatrix in="SourceAlpha" type="matrix" values="0 0 0 0 0 0 0 0 0 0 0 0 0 0 0 0 0 0 127 0" result="hardAlpha"/>
<feOffset dy="4"/>
<feGaussianBlur stdDeviation="8.5"/>
<feComposite in2="hardAlpha" operator="out"/>
<feColorMatrix type="matrix" values="0 0 0 0 0 0 0 0 0 0 0 0 0 0 0 0 0 0 0.25 0"/>
<feBlend mode="normal" in2="BackgroundImageFix" result="effect1_dropShadow_1302_4"/>
<feBlend mode="normal" in="SourceGraphic" in2="effect1_dropShadow_1302_4" result="shape"/>
</filter>
</defs>
</svg>
